<?xml version="1.0" encoding="UTF-8"?>
<svg id="Capa_2" data-name="Capa 2" xmlns="http://www.w3.org/2000/svg" viewBox="0 0 561.67 610.48">
  <defs>
    <style>
      .cls-1 {
        fill: #a45ea2;
      }

      .cls-2 {
        fill: #f4cb3f;
      }
    </style>
  </defs>
  <g id="Capa_1-2" data-name="Capa 1">
    <g>
      <circle class="cls-1" cx="280.83" cy="322.34" r="280.83"/>
      <path d="M258.78,497.97c-15.3-4.22-35.13,5.94-41.45,21.2-10.51,25.35,.49,66.3,40.01,74.95,27.15,5.94,50.18-8.17,64.15-27.58,14.42-20.03,18.63-43.11,18.33-67.14-.16-12.8-1.7-25.58-2.59-38.02-11.5,1.54-21.92,3.64-32.42,4.2-31.35,1.67-60.91-5.38-88.79-19.72-21.14-10.88-38.98-25.63-52.8-45.08-7.89-11.11-13.88-23.12-18.23-36.08-14.78-44.1-6.62-86.06,11.38-127.17,11.78-26.91,27.51-51.52,44-75.71,1.12-1.65,1.57-4.44,1.09-6.39-6.67-26.94-10.87-54.13-7.7-81.92,2.45-21.53,9.24-41.41,25.77-56.53C230.11,7.28,242.36,1.2,257.15,.07c13.24-1.01,29.85,9.71,35.09,24.4,6.97,19.51,3.94,38.59-4.91,56.12-8.88,17.57-20.25,33.89-30.82,50.57-9.53,15.03-19.43,29.82-29.25,44.66-1.51,2.28-1.84,4.05-.47,6.74,12.04,23.6,23.86,47.32,35.78,70.98,.5,.98,1.33,1.8,1.79,2.4,32.35-18.49,65.35-19.64,99.12-5.21,22.9,9.78,39.69,26.15,49.87,48.79,13.13,29.18,14.96,59.02,2.78,89.05-11.38,28.07-31.85,47.8-58.03,62.11-1.58,.86-3.14,1.91-4.85,2.36-6.02,1.6-5.61,5.63-5.02,10.63,3.94,33.13,4.14,66.1-10.29,97.1-9.94,21.36-26.85,36.03-48.88,44.68-17.83,7.01-35.6,6.71-53-.99-20.53-9.09-33.14-25.5-37.43-47.02-5.4-27.11,7-52.4,32.65-63.57,19.56-8.52,36.42-6.43,53.27,10.08,6.96,6.82,8.23,15.84,4.63,24.87-3.75,9.42-11.54,14.21-21.35,14.56-9.47,.33-16.82-4.18-21.21-12.82-5.91-11.64-1.69-24.98,9.87-31.48,.63-.36,1.31-.64,2.29-1.11Zm63.14-93.89c-4.49,.39-7.94,.74-11.4,.98-20.38,1.42-38.66-4.29-54.39-17.17-15.06-12.34-23.6-28.6-26.56-47.86-3.76-24.46,1.57-46.54,16.51-66.35,.96-1.27,1.19-4.14,.42-5.51-12.6-22.33-23.69-45.34-32.41-69.76-.64,.59-1.08,.84-1.3,1.22-12.4,20.81-23.22,42.38-31.82,65.07-13.89,36.67-15.85,73.24,.07,109.9,12.95,29.81,33.87,51.82,63.52,65.26,21.42,9.71,43.98,13.61,67.4,11.74,7.15-.57,14.21-2.36,22.22-3.74-4.3-15.37-8.27-29.53-12.26-43.77Zm46.94-67.69c-.28,.97-.4,2.01-.85,2.89-5.78,11.29-16.81,16.12-28.63,12.59-10.17-3.04-16.82-13.96-15.67-25.7,.97-9.87,7.85-18.6,16.44-20.87,11.56-3.05,22.46,.5,29,9.86,4.94,7.08,6.88,15.12,7.78,23.75,1.52,14.67-2.15,27.54-11.25,38.92-8.32,10.4-19.22,17.36-31.16,22.27,3.78,14.43,7.47,28.49,11.16,42.58,.24,0,.61,.12,.87,0,20.02-8.84,36.94-21.74,49.94-39.38,10.84-14.7,17.7-31.06,17.77-49.67,.06-14.16-3.74-27.54-9.51-40.27-8.42-18.55-20.92-33.48-39.72-42.53-19.6-9.43-39.95-10.54-60.82-5.94-10.25,2.26-19.63,6.59-28.09,13.42,20.04,36.06,40.95,71.51,54.18,110.7,26.49-10.6,43.04-33.18,38.57-52.63ZM212.15,144.99c.95-1.12,1.39-1.58,1.77-2.1,13.6-18.41,27.37-36.69,40.73-55.27,9-12.52,15.94-25.99,16.22-42.01,.35-20.17-18.26-32.33-36.58-24.11-13.57,6.09-21.22,17.03-25.82,30.41-10.71,31.14-5.98,61.8,3.69,93.08Zm104.42,247.03c-14-34.98-34.5-66.21-54.51-98.01-15.44,21.78-13.66,52.01,4.01,75.8,13.07,17.6,32.92,25.26,50.5,22.21Z"/>
      <path class="cls-2" d="M481.71,453.32c-11.21,1.75-21.97,1.13-31.56-6-4.77-3.54-9.61-7.01-14.58-10.25-6.27-4.09-13.63-5.54-20.6-7.9-.2-.07-.41-.09-.61-.15-4.56-1.52-4.59-1.73-1.96-5.65,4.42-6.6,8.73-13.28,11.28-20.88,.56-1.66,1.05-1.9,2.65-1.09,9.39,4.76,17.3,11.34,23.51,19.75,3.11,4.21,5.28,9.09,8.63,13.23,5.07,6.28,12.05,8.47,19.54,9.53,3.29,.46,6.6,.68,9.73,1.91,1.04,.41,2.37,.81,2.27,2.24-.08,1.14-.65,2.09-1.89,2.65-2.1,.94-3.98,2.41-6.42,2.61Z"/>
      <path class="cls-2" d="M403.01,433.06c1.09,1.46,1.19,3.18,1.61,4.79,1.82,7.05,6.44,11.58,12.96,14.35,1.47,.62,3.01,1.2,4.06,2.32,.85,.91,2.73,1.69,2.07,3.17-.54,1.21-2.35,1.53-3.66,1.5-9.34-.21-17.36-3.27-23.02-11.14-1.09-1.51-2.19-3.02-3.33-4.49-1.04-1.34-.82-3.23,.28-3.64,3.75-1.4,5.77-4.9,9.04-6.86Z"/>
      <path class="cls-2" d="M511.2,355.07c-9.03,6.87-18.79,11.44-30.61,9.72-5.88-.85-11.78-1.6-17.7-2.09-7.46-.61-14.62,1.6-21.88,2.84-.21,.04-.41,.12-.61,.16-4.74,.83-4.86,.66-4.41-4.04,.76-7.91,1.37-15.83,0-23.73-.3-1.72,.02-2.17,1.82-2.22,10.52-.28,20.61,1.75,30.07,6.2,4.74,2.23,8.97,5.49,13.88,7.54,7.45,3.11,14.63,1.73,21.72-.91,3.12-1.16,6.14-2.54,9.47-2.94,1.11-.14,2.47-.42,3.06,.89,.47,1.04,.42,2.15-.41,3.23-1.4,1.82-2.36,4.01-4.41,5.34Z"/>
      <path class="cls-2" d="M433.99,377.15c1.67,.72,2.62,2.17,3.78,3.36,5.08,5.21,11.35,6.84,18.38,6,1.58-.19,3.21-.45,4.67,0,1.19,.37,3.21,.11,3.37,1.72,.13,1.32-1.27,2.49-2.43,3.12-8.21,4.46-16.68,5.8-25.51,1.79-1.7-.77-3.4-1.52-5.12-2.24-1.57-.65-2.32-2.39-1.57-3.29,2.56-3.08,2.57-7.12,4.43-10.45Z"/>
      <path class="cls-2" d="M487.97,249.19c-3.84,10.68-9.55,19.82-20.4,24.81-5.4,2.48-10.76,5.07-15.99,7.88-6.6,3.54-11.4,9.3-16.81,14.29-.15,.14-.28,.32-.43,.47-3.52,3.28-3.72,3.19-5.9-.99-3.66-7.05-7.46-14.03-12.9-19.92-1.19-1.28-1.16-1.83,.32-2.85,8.68-5.96,18.25-9.74,28.61-11.15,5.19-.71,10.51-.27,15.75-1.22,7.94-1.44,13.21-6.5,17.73-12.57,1.99-2.67,3.77-5.47,6.34-7.62,.86-.72,1.85-1.69,3.06-.92,.96,.62,1.52,1.57,1.41,2.93-.19,2.29,.2,4.65-.79,6.88Z"/>
      <path class="cls-2" d="M433.92,309.99c1.8-.2,3.35,.58,4.95,1.04,7,2,13.25,.31,18.94-3.91,1.28-.95,2.56-1.99,4.06-2.32,1.21-.27,2.84-1.5,3.78-.18,.77,1.08,.13,2.8-.56,3.92-4.92,7.94-11.61,13.31-21.27,14.2-1.86,.17-3.71,.36-5.56,.6-1.69,.21-3.2-.93-3-2.08,.7-3.94-1.3-7.46-1.33-11.27Z"/>
      <path class="cls-2" d="M410.75,174.68c2.59,11.05,2.78,21.82-3.61,31.92-3.18,5.02-6.26,10.11-9.12,15.31-3.6,6.56-4.5,14-6.32,21.14-.05,.2-.06,.42-.11,.62-1.17,4.67-1.38,4.71-5.49,2.38-6.91-3.92-13.9-7.71-21.67-9.68-1.69-.43-1.97-.9-1.29-2.56,4.04-9.72,10-18.11,17.93-24.93,3.97-3.42,8.67-5.95,12.55-9.6,5.88-5.53,7.54-12.65,8.03-20.2,.21-3.32,.19-6.64,1.17-9.84,.33-1.07,.63-2.43,2.06-2.44,1.14,0,2.13,.49,2.78,1.69,1.09,2.03,2.7,3.79,3.08,6.2Z"/>
      <path class="cls-2" d="M398.52,255.11c1.41-1.15,3.12-1.33,4.72-1.82,6.96-2.13,11.29-6.95,13.76-13.59,.56-1.5,1.07-3.06,2.14-4.15,.87-.89,1.57-2.8,3.07-2.21,1.23,.48,1.63,2.28,1.66,3.59,.2,9.34-2.49,17.49-10.11,23.49-1.46,1.15-2.91,2.32-4.34,3.53-1.3,1.1-3.19,.97-3.65-.12-1.56-3.69-5.15-5.55-7.25-8.73Z"/>
      <path class="cls-2" d="M336.5,229.01c.35-1.78,1.56-3.02,2.47-4.41,4-6.08,4.25-12.56,1.92-19.24-.53-1.51-1.13-3.04-1-4.56,.1-1.24-.58-3.16,.96-3.66,1.26-.41,2.71,.71,3.57,1.7,6.11,7.06,9.24,15.05,7.21,24.54-.39,1.82-.76,3.65-1.09,5.48-.3,1.67-1.84,2.78-2.88,2.24-3.56-1.84-7.51-.98-11.15-2.09Z"/>
    </g>
  </g>
</svg>